<svg id="Capa_1" data-name="Capa 1" xmlns="http://www.w3.org/2000/svg" viewBox="0 0 173 50"><defs><style>.cls-1{fill:#00c3f6;}.cls-2{fill:#fff;}.cls-3{fill:#00e0bf;}</style></defs><rect class="cls-1" x="6.12" y="14.27" width="39.68" height="0.22"/><rect class="cls-1" x="6.12" y="19.62" width="39.68" height="0.22"/><rect class="cls-1" x="6.12" y="24.97" width="39.68" height="0.22"/><rect class="cls-1" x="6.12" y="30.31" width="39.68" height="0.22"/><rect class="cls-1" x="6.12" y="35.66" width="39.68" height="0.22"/><rect class="cls-2" x="10.12" y="19.95" width="1.88" height="17.88"/><rect class="cls-2" x="14.35" y="22.79" width="1.88" height="15.05"/><rect class="cls-3" x="18.58" y="13.34" width="1.88" height="24.5"/><rect class="cls-2" x="22.82" y="16.56" width="1.88" height="21.27"/><rect class="cls-1" x="27.05" y="28.41" width="1.88" height="9.43"/><rect class="cls-2" x="31.28" y="21.1" width="1.88" height="16.74"/><rect class="cls-2" x="35.52" y="24.3" width="1.88" height="13.54"/><rect class="cls-2" x="39.75" y="17.32" width="1.88" height="20.52"/><path class="cls-2" d="M46,39.83H5.92V10.33H46Zm-39.68-.4H45.61V10.72H6.32Z"/><rect class="cls-2" x="4.49" y="14.17" width="1.13" height="0.43"/><rect class="cls-2" x="4.49" y="19.52" width="1.13" height="0.43"/><rect class="cls-2" x="4.49" y="24.86" width="1.13" height="0.43"/><rect class="cls-2" x="4.49" y="30.21" width="1.13" height="0.43"/><rect class="cls-2" x="4.49" y="35.56" width="1.13" height="0.43"/><path class="cls-2" d="M75.74,12A13.19,13.19,0,1,0,88.93,25.19,13.19,13.19,0,0,0,75.74,12Zm0,24.82A11.64,11.64,0,1,1,87.37,25.19,11.64,11.64,0,0,1,75.74,36.82Z"/><path class="cls-3" d="M75.74,38.93A13.74,13.74,0,0,1,62,25.19h2.76a11,11,0,0,0,11,11Z"/><path class="cls-2" d="M112.57,12a13.19,13.19,0,1,0,13.19,13.19A13.19,13.19,0,0,0,112.57,12Zm0,24.82a11.64,11.64,0,1,1,11.64-11.63A11.63,11.63,0,0,1,112.57,36.82Z"/><path class="cls-3" d="M102.86,34.9a13.74,13.74,0,0,1,19.43-19.43l-2,2A11,11,0,0,0,104.81,33Z"/><path class="cls-2" d="M149.4,12a13.19,13.19,0,1,0,13.19,13.19A13.19,13.19,0,0,0,149.4,12Zm0,24.82A11.64,11.64,0,1,1,161,25.19,11.63,11.63,0,0,1,149.4,36.82Z"/><path class="cls-3" d="M149.4,38.93a13.76,13.76,0,0,1-13.74-13.74h2.76a11,11,0,1,0,11-11V11.45a13.74,13.74,0,0,1,0,27.48Z"/><path class="cls-1" d="M67.78,25.19a8,8,0,0,0,8,8v-8Z"/><path class="cls-1" d="M106.94,19.56a8,8,0,0,0,0,11.26L118.2,19.56A8,8,0,0,0,106.94,19.56Z"/><path class="cls-1" d="M141.44,25.19a8,8,0,1,0,8-8v8Z"/></svg>