<svg id="Capa_1" data-name="Capa 1" xmlns="http://www.w3.org/2000/svg" viewBox="0 0 516 284"><defs><style>.cls-1{font-size:35.38px;font-family:Roboto-Bold, Roboto;font-weight:700;letter-spacing:0.19em;}.cls-1,.cls-4,.cls-5{fill:#43e483;}.cls-2{letter-spacing:0.2em;}.cls-3{letter-spacing:0.16em;}.cls-5{font-size:150.9px;font-family:Droid-regular, Droid;letter-spacing:0.1em;}</style></defs><text class="cls-1" transform="translate(65.73 230.2)">L<tspan class="cls-2" x="26.32" y="0">UIS INES AMIE</tspan><tspan class="cls-3" x="352.72" y="0">V</tspan><tspan class="cls-2" x="381.01" y="0">A</tspan></text><polygon class="cls-4" points="193.9 43.93 193.9 37.24 42.65 37.24 36.7 37.24 36.7 43.93 36.7 240.31 36.7 243.66 36.7 247 193.9 247 193.9 240.31 42.65 240.31 42.65 43.93 193.9 43.93"/><polygon class="cls-4" points="477.6 43.69 477.6 37 320.39 37 320.39 43.69 471.45 43.69 471.45 240.07 320.39 240.07 320.39 246.76 477.6 246.76 477.6 240.07 477.4 240.07 477.4 43.69 477.6 43.69"/><text class="cls-5" transform="translate(65.63 194.23)">chAPARrO</text></svg>